<svg id="Calque_1" xmlns="http://www.w3.org/2000/svg" viewBox="0 0 28.4 32.8"><style>.st0{opacity:.6}.st0,.st1{enable-background:new}.st2{fill:#FFF}.st3{fill:#ffed00}</style><path class="st0" d="M706.9 43.9l14.2-10.6L735.5 44l14.2-10.7L764 44l14.2-10.7L792.5 44l14.2-10.7L821 44l14.2-10.7L849.5 44l14.2-10.7L878 44l14.3-10.7L906.5 44l14.3-10.7L935 44l14.3-10.7L963.5 44l14.3-10.7L992.1 44l14.2-10.7 14.3 10.7 14.2-10.7 14.3 10.7 14.3-10.7 13.5 10.1V43v1-383.2l-13.5 10.1-14.3-10.7-14.3 10.7-14.2-10.7-14.3 10.7-14.2-10.7-14.3 10.7-14.3-10.7-14.2 10.7-14.3-10.7-14.2 10.7-14.3-10.7-14.2 10.7-14.3-10.7-14.3 10.7-14.2-10.7-14.3 10.7-14.2-10.7-14.3 10.7-14.2-10.7-14.3 10.7-14.2-10.7-14.3 10.7-14.2-10.7-14.4 10.7-14.2-10.6V44" id="Calque_5"/><text transform="matrix(.9824 0 0 1 -990.426 -880.672)" class="st1" id="Calque_1_1_"><tspan x="0" y="0" class="st2" font-family="MyriadPro-Regular" font-size="15.158">nowave</tspan><tspan x="50.1" y="0" class="st2" font-family="ArialHebrew" font-size="15.158">.</tspan><tspan x="53.2" y="0" class="st2" font-family="MyriadPro-Regular" font-size="15.158">io</tspan></text><path class="st3" d="M14.2 18.8L6.1 0H0l14.2 32.8L28.4 0h-6.1z" id="Calque_3"/></svg>