<svg xmlns="http://www.w3.org/2000/svg" viewBox="0 0 181 38"><path fill="#C6AA69" d="M7.5 26.3c0 2-.9 2.9-2.3 2.9-1.5 0-2.2-.9-2.2-2.6V12.3c0-2.3.9-2.9 2.2-2.9 1.5 0 2.2.9 2.3 2.7v3.5H6.4v-3.8c0-.9-.5-1.2-1.1-1.2-.7 0-1.1.5-1.1 1.4v14.2c.1 1.5.5 1.9 1.1 1.9.6 0 1.1-.3 1.1-2V23h1.1v3.3zM18.3 29.1V9.5h3.8v1.1h-2.7v8.1h2.3v1h-2.3V28h2.7v1.1h-3.8zM34.7 10.6v18.5h-1.1V10.6H32V9.5h4.4v1.1h-1.7zM49.2 10.6v18.5h-1.1V10.6h-1.7V9.5h4.4v1.1h-1.6zM61.5 29.1V9.5h3.8v1.1h-2.7v8.1h2.3v1h-2.3V28h2.7v1.1h-3.8zM89.8 29.2c-1.3 0-2.1-.8-2.1-2.8v-2.3h1v2c0 1.7.3 2.1 1.1 2.1.7 0 1.1-.4 1.1-2.3 0-2.4-.2-3.5-1.1-5.8-.2-.5-.6-1.3-.8-2-.9-2.1-1.4-3.5-1.4-5.4 0-2.3.9-3.3 2.3-3.3 1.5 0 2.1 1.1 2.1 3v2.3h-1.1v-2.2c0-1.3-.2-2-1.1-2-.8 0-1.1.6-1.1 2.3 0 1.6.5 3.1 1.3 4.8.1.3.6 1.4.8 1.9.8 2 1.2 3.6 1.2 6.2.1 2.7-.9 3.5-2.2 3.5zM102.8 29.1V9.5h3.8v1.1h-2.7v8.1h2.3v1h-2.3V28h2.7v1.1h-3.8zM122.4 29.1V14.3l-1.7 14.8h-1l-1.6-14.8v14.8h-1V9.5h1.3l1.8 16 1.9-16h1.3v19.6h-1zM134.9 29.1h-1.1l2-19.6h1.4l1.5 19.6h-1.1s-.3-4.5-.3-4.7h-2.1c.1.2-.3 4.7-.3 4.7zm1.7-14.6c-.1-.9-.1-3.3-.1-3.3s0 2.4-.1 3.3c-.1.6-1 9-1 9h2c-.1-.1-.8-8.4-.8-9zM149.2 29.1V9.5h1.1v19.6h-1.1zM164.6 29.1l-2.1-15v15h-1V9.5h1.2l2.1 14.6V9.5h1v19.6h-1.2zM177 29.1V9.5h3.8v1.1h-2.7v8.1h2.3v1h-2.3V28h2.7v1.1H177z"/><path fill="none" stroke="#C6AA69" stroke-miterlimit="10" d="M0 37.5h181M0 .5h181"/></svg>