<svg xmlns="http://www.w3.org/2000/svg" viewBox="0 0 24 24"><path opacity=".8" d="M-801.9 101H24.9v418.8h-826.8z"/><path fill="#F6E62E" d="M-375.5 180.3c-10.9 0-19.9-11.3-20.9-12.6l20.9 48.1 20.9-48.3c-.6 1-9.7 12.8-20.9 12.8z"/><path fill="#BA9C56" d="M-375.5 154.9c-11.3 0-20.5 12.2-21 12.8.4.6 9.6 12.8 21 12.8 11.3 0 20.5-12.2 21-12.8-.4-.7-9.7-12.8-21-12.8zm0 24.3c-6.4 0-11.6-5.2-11.6-11.6s5.2-11.6 11.6-11.6 11.6 5.2 11.6 11.6-5.2 11.6-11.6 11.6z"/><g><g fill="none" stroke-miterlimit="10"><path stroke="#BA9C56" d="M.5.5h23v23H.5z"/><g stroke="#FFED00"><path d="M4.2 3.8l16 16M20.2 3.8l-16 16"/></g></g><path fill="none" d="M-668.1 232.5H-91v107h-577.1z"/><text transform="matrix(.9824 0 0 1 -663.333 247.74)"><tspan x="0" y="0" fill="#F1F1F1" font-family="'OpenSans'" font-size="20">Nowave explore des thématiques contemporaines à travers le </tspan><tspan x="102.8" y="20" fill="#F1F1F1" font-family="'OpenSans'" font-size="20">regard de réalisateurs du monde entier.</tspan><tspan x="17" y="60" fill="#F1F1F1" font-family="'OpenSans-Light'" font-size="17">Pour 12,99€ par mois, explorez tous les themas, et partagez un film par </tspan><tspan x="56.5" y="80" fill="#F1F1F1" font-family="'OpenSans-Light'" font-size="17">semaine avec la personne de votre choix pendant 24 heures.</tspan></text><path fill="#AE8D45" stroke="#AE8D45" stroke-miterlimit="10" d="M-318.8 404h229v54h-229z"/><text transform="matrix(.9824 0 0 1 -263.96 436.224)" fill="#FFF" font-family="'OpenSans-Bold'" font-size="14.89">share the vision</text><path fill="#FFF" stroke="#AE8D45" stroke-miterlimit="10" d="M-670 404h351v54h-351z"/><text transform="translate(-644.782 436.797)" fill="#A3A3A3" font-family="'OpenSans-Light'" font-size="20.349">Votre email</text><text transform="matrix(.9824 0 0 1 -493.467 392.936)" fill="#F1F1F1" font-family="'OpenSansLight-Italic'" font-size="15">Soyez averti de la date de lancement !</text><path fill="#F1F1F1" d="M336.4 117.5h640v360h-640z"/></g></svg>