<svg id="Calque_1" xmlns="http://www.w3.org/2000/svg" viewBox="0 0 152 75.1"><style>.st0{fill:#e9c10f}.st1{enable-background:new}.st2{fill:#FFF}</style><path class="st0" d="M140 74H12C5.4 74 0 68.6 0 62V12C0 5.4 5.4 0 12 0h128c6.6 0 12 5.4 12 12v50c0 6.6-5.4 12-12 12z"/><g class="st1"><path class="st2" d="M32.3 12.2v44.3H20.9V12.2h11.4zM71.7 12.2v44.3h-9.9V26.6l-3.9 29.9h-7l-4.2-29.2v29.2h-9.9V12.2h14.7c.4 2.7.9 5.8 1.3 9.4l1.6 11.3L57 12.2h14.7zM76.3 12.2h8.5c5.5 0 9.2.3 11.1.8 1.9.5 3.4 1.4 4.4 2.5s1.6 2.5 1.9 3.9c.3 1.4.4 4.2.4 8.4v15.5c0 4-.2 6.6-.6 8-.4 1.3-1 2.4-1.9 3.1-.9.8-2 1.3-3.4 1.6s-3.4.5-6.1.5H76.3V12.2zm11.3 7.6V49c1.6 0 2.6-.3 3-1 .4-.7.6-2.5.6-5.4V25.3c0-2-.1-3.3-.2-3.9s-.4-1-.9-1.2c-.4-.3-1.3-.4-2.5-.4zM117.3 12.2v10.5c.9-1.1 1.9-1.9 3-2.4s2.3-.8 3.6-.8c1.5 0 2.8.2 3.9.7 1.1.5 1.9 1.1 2.5 2 .6.9.9 1.7 1 2.5.1.8.2 2.6.2 5.3v16.4c0 2.7-.2 4.7-.5 6-.4 1.3-1.2 2.4-2.5 3.4s-2.8 1.4-4.6 1.4c-1.3 0-2.5-.3-3.6-.9-1.1-.6-2.1-1.4-3-2.6l-.7 2.7h-10.2V12.2h10.9zm3.3 18.3c0-1.9-.1-3.1-.4-3.7-.2-.6-.7-.9-1.4-.9s-1.1.3-1.3.8c-.2.5-.3 1.8-.3 3.8v15.7c0 2 .1 3.2.3 3.8.2.5.7.8 1.3.8.7 0 1.1-.3 1.3-.8.2-.6.3-1.9.3-4.1V30.5z"/></g></svg>