<svg xmlns="http://www.w3.org/2000/svg" width="300" height="150" viewBox="0 0 300 150"><linearGradient id="a" gradientUnits="userSpaceOnUse" x1="123.736" y1="-22.556" x2="176.343" y2="173.777"><stop offset="0" stop-color="#f8e643"/><stop offset="1" stop-color="#bfa233"/></linearGradient><path d="M28.418 8.068c-2.82 14.855-7.338 16.79-18.972 18.967v97.14c11.638 1.526 18.743 7.345 18.978 18.978h243.23c.878-10.988 8.634-17.45 18.977-18.977v-97.14c-11.627-.886-18.087-6.694-18.977-18.968H28.418z" fill="url(#a)"/><linearGradient id="b" gradientUnits="userSpaceOnUse" x1="126.842" y1="162.174" x2="173.237" y2="-10.973"><stop offset="0" stop-color="#f8e643"/><stop offset="1" stop-color="#bfa233"/></linearGradient><path d="M39.78 16.963c-2.55 12.908-6.65 14.59-17.2 16.468v84.33c10.55 1.323 16.993 6.378 17.2 16.476h220.515c.802-9.55 7.828-15.152 17.208-16.475V33.43c-10.556-.754-16.406-5.803-17.208-16.467H39.78z" fill="url(#b)"/><linearGradient id="c" gradientUnits="userSpaceOnUse" x1="127.951" y1="-6.829" x2="172.125" y2="158.032"><stop offset="0" stop-color="#f8e643"/><stop offset="1" stop-color="#bfa233"/></linearGradient><path d="M42.545 20.55c-2.488 12.116-6.49 13.693-16.766 15.468v79.167c10.274 1.24 16.562 5.98 16.765 15.47h214.99c.776-8.962 7.62-14.23 16.76-15.47V36.02c-10.273-.714-15.983-5.466-16.76-15.47H42.546z" fill="url(#c)"/><path d="M235.598 115.99c-2.463 0-4.795-.548-6.933-1.628-1.522-.77-2.952-1.815-4.274-3.12l-.7 2.72-.23.9h-20.23V34.73h21.788v16.804a16.07 16.07 0 0 1 3.653-2.382c2.15-.99 4.483-1.493 6.948-1.493 2.803 0 5.29.45 7.396 1.337 2.17.927 3.85 2.25 5 3.93 1.125 1.654 1.815 3.307 2.053 4.916.217 1.537.325 4.688.325 9.377v28.674c0 4.836-.322 8.353-.99 10.753-.684 2.534-2.32 4.758-4.858 6.6-2.518 1.823-5.526 2.743-8.946 2.743zm-8.907-54.62c-.994 0-1.148.382-1.224.565-.136.33-.45 1.59-.45 6.177V95.49c0 4.238.323 5.63.517 6.085.152.366.412.7 1.3.7.938 0 1.153-.365 1.282-.704.18-.478.485-1.987.485-6.71V68.112c0-4.068-.34-5.486-.544-5.97-.193-.463-.5-.773-1.365-.773zM176.2 114.86h-26.63V34.73h16.282c9.938 0 16.5.453 20.062 1.38 3.658.96 6.494 2.57 8.435 4.785 1.928 2.226 3.147 4.724 3.63 7.43.467 2.604.694 7.516.694 15.013v27.227c0 7.133-.335 11.815-1.028 14.313-.72 2.588-2.007 4.653-3.824 6.136-1.77 1.438-3.966 2.46-6.53 3.033-2.508.55-6.135.815-11.09.815zm-4.037-64.454v48.76c1.642-.125 2.737-.512 3.072-1.107.25-.448.84-2.228.84-8.95V58.847c0-4.255-.17-5.89-.312-6.51-.15-.68-.454-1.132-.95-1.424-.28-.167-.968-.423-2.65-.506zm-28.246 64.454h-20.018v-1.197l-.05-34.69-4.667 34.85-.14 1.038H104.343l-.15-1.03-4.987-34.854-.056 34.687v1.197H79.137V34.73h28.371l.15 1.027.82 5.615a6429.12 6429.12 0 0 0 1.598 10.945l1.61 11.06 3.534-27.6.135-1.046h28.555V114.864h.002zm-70.486 0H50.828V34.73H73.43V114.864z" fill="#FFF"/><path d="M52.028 35.93h20.2v77.732h-20.2zM142.714 35.93v77.732h-17.62l-.077-52.483-7.027 52.482h-12.606l-7.35-51.353-.082 51.352H80.338V35.93h26.134c.692 4.72 1.49 10.243 2.42 16.562l2.873 19.737 4.648-36.3h26.3zM170.962 49.182v51.228c2.878 0 4.653-.584 5.314-1.76.655-1.172.994-4.352.994-9.54V58.847c0-3.53-.114-5.788-.34-6.777-.223-1-.723-1.727-1.514-2.19-.784-.47-2.268-.698-4.454-.698M150.767 35.93h15.084c9.74 0 16.33.448 19.76 1.343 3.435.9 6.048 2.374 7.833 4.414 1.785 2.056 2.904 4.33 3.352 6.85.453 2.514.677 7.443.677 14.803v27.227c0 6.98-.333 11.64-.983 13.992-.657 2.35-1.797 4.192-3.432 5.526-1.63 1.326-3.638 2.254-6.032 2.79-2.395.524-6 .786-10.826.786h-25.432V35.93zM229.8 68.112c0-3.284-.214-5.423-.636-6.433-.422-1.006-1.24-1.51-2.473-1.51-1.2 0-1.982.442-2.336 1.31-.36.88-.536 3.093-.536 6.632V95.49c0 3.414.203 5.596.61 6.553.4.963 1.206 1.432 2.403 1.432 1.23 0 2.03-.488 2.405-1.48.375-.993.563-3.366.563-7.134V68.113zm-5.982-32.182v18.503c1.608-1.874 3.394-3.274 5.36-4.195 1.983-.917 4.128-1.38 6.44-1.38 2.658 0 4.965.418 6.927 1.245 1.957.838 3.45 2.004 4.477 3.503 1.025 1.504 1.645 2.978 1.857 4.414.202 1.437.312 4.502.312 9.202v28.674c0 4.67-.313 8.146-.947 10.432-.62 2.29-2.098 4.273-4.408 5.95-2.316 1.675-5.06 2.513-8.24 2.513-2.284 0-4.413-.5-6.392-1.5-1.982-1.003-3.794-2.503-5.423-4.495l-1.255 4.867H204.43V35.93h19.388zM256.65 44.83h.76c.87 0 1.605-.312 1.605-1.118 0-.583-.422-1.16-1.604-1.16-.343 0-.57.025-.76.056v2.223zm0 3.65h-1.045V41.9c.552-.083 1.072-.162 1.863-.162.994 0 1.65.208 2.04.5.396.287.604.734.604 1.364 0 .87-.572 1.39-1.28 1.598v.052c.572.11.97.63 1.1 1.603.155 1.02.312 1.416.42 1.624h-1.098c-.167-.21-.317-.813-.453-1.677-.155-.843-.57-1.155-1.415-1.155h-.733v2.83zm1.1-8.417c-2.593 0-4.716 2.228-4.716 4.98 0 2.812 2.123 5.013 4.747 5.013 2.624.026 4.722-2.202 4.722-4.986 0-2.78-2.098-5.007-4.72-5.007h-.032zm.03-.92c3.228 0 5.8 2.622 5.8 5.9 0 3.332-2.572 5.93-5.83 5.93-3.223 0-5.846-2.598-5.846-5.93 0-3.278 2.623-5.9 5.846-5.9h.03z"/></svg>