<svg id="Calque_1" xmlns="http://www.w3.org/2000/svg" viewBox="0 0 366.4 89.4"><style>.st0{fill:#FFF}.st1{fill:#ffed00}.st2{fill:#c6aa69}</style><title>nowave_logo</title><path class="st0" d="M5.2 30.6c-1-1.4-2.5-3.7-2.5-3.7s.3 2.6.3 4.2v45.6H0v-57h1l34.5 46.8c1 1.4 2.5 3.7 2.5 3.7s-.2-2.6-.2-4.2V20.3h3v57.1h-1L5.2 30.6z"/><path class="st0" d="M39.2 48.5c0-17.2 12.4-28.9 27.7-28.9s27.7 11.7 27.7 28.9-12.5 28.9-27.8 28.9-27.6-11.7-27.6-28.9zm52 0c0-14.8-10.4-25.8-24.3-25.8s-24.3 11-24.3 25.8S53 74.3 66.9 74.3s24.2-11 24.3-25.8zM165.3 19.7h1l21.9 57.1h-3.3l-4.1-10.9h-29.9l-4.1 10.9h-3.3l21.8-57.1zm14.2 43.1l-12.2-32.2c-.6-1.7-1.2-3.4-1.6-5.1-.4 1.7-1 3.5-1.6 5.1l-12.2 32.2h27.6zM171.8 20.3h3.5l17.5 46c.6 1.7 1.1 3.4 1.5 5.1.4-1.7.9-3.5 1.5-5.1l17.5-46h3.3l-21.8 57.1h-1l-22-57.1z"/><path class="st0" d="M213.9 20.3h31.6v3h-28.3v30.2h25.4v3h-25.4v17.2h29.4v3h-32.7V20.3zM156.2 20.3l-16.7 45.4-1.3 4.2c-.2-1.4-.6-2.8-1-4.2l-15.5-46h-.5v6.8c.2 1.4.5 2.8.9 4.2l15.7 46.8h.9l20.8-57.1-3.3-.1z"/><path class="st0" d="M86.5 20.3l16.7 45.4 1.3 4.2c.2-1.4.6-2.8 1-4.2l15.5-46h.5v6.8c-.2 1.4-.5 2.8-.9 4.2l-15.8 46.7h-.9L83.2 20.3h3.3z"/><path class="st1" d="M335.8 37.3c-16 0-29.1-16.6-30.5-18.5l30.6 70.5 30.6-70.6c-1.1 1.1-14.4 18.6-30.7 18.6z"/><path class="st2" d="M335.8 0c-16.5 0-30 17.8-30.7 18.7.6.8 14.1 18.7 30.7 18.7s30-17.8 30.7-18.7c-.7-.9-14.2-18.7-30.7-18.7zm0 35.6c-9.4 0-16.9-7.6-16.9-16.9 0-9.4 7.6-16.9 16.9-16.9 9.4 0 16.9 7.6 16.9 16.9 0 9.3-7.6 16.9-16.9 16.9z"/></svg>