<svg xmlns="http://www.w3.org/2000/svg" viewBox="0 0 109.6 25.7"><g fill="#FFF"><path d="M2.3 4.9c-.4-.7-1.1-1.7-1.1-1.7s.1 1.1.1 1.9v20.3H0V0h.4l15.4 20.8c.5.6 1.1 1.7 1.1 1.7s-.1-1.1-.1-1.9V.3h1.3v25.4h-.4L2.3 4.9z"/><path d="M17.4 12.8C17.4 5.2 22.9 0 29.7 0S42 5.2 42 12.8c0 7.6-5.5 12.8-12.3 12.8s-12.3-5.1-12.3-12.8zm23.1 0c0-6.6-4.6-11.5-10.8-11.5-6.2 0-10.8 4.9-10.8 11.5s4.6 11.5 10.8 11.5c6.2 0 10.8-4.9 10.8-11.5zM73.5 0h.4l9.7 25.4h-1.5l-1.8-4.9H67l-1.8 4.9h-1.4L73.5 0zm6.3 19.2L74.4 4.9c-.4-.9-.7-2.3-.7-2.3S73.3 4 73 4.9l-5.4 14.3h12.2zM76.3.3h1.6l7.8 20.5c.3.8.7 2.3.7 2.3s.4-1.5.7-2.3L94.9.3h1.4l-9.7 25.4h-.4L76.3.3z"/><path d="M95.1.3h14v1.3H96.5V15h11.3v1.3H96.5V24h13.1v1.3H95.1V.3zM69.4.3L62 20.5c-.2.7-.6 1.8-.6 1.8s-.2-1.1-.4-1.8L54.1 0h-.2v3c0 .2.2 1.2.4 1.8l7 20.8h.4L70.9.2h-1.5z"/><path d="M38.4.3l7.4 20.2c.2.7.6 1.8.6 1.8s.2-1.1.4-1.8L53.7 0h.2v3c0 .2-.2 1.2-.4 1.8l-7 20.8h-.4L37 .3h1.4z"/></g></svg>