<svg id="Calque_1" xmlns="http://www.w3.org/2000/svg" viewBox="0 0 357.3 518.8"><style>.st0{fill:#ffed00}.st1{fill:#bb9d56}</style><path class="st0" d="M178.6 216.1c-93 0-169.3-95.9-177.9-107.2l178.5 409.8 178.1-412.4h-.1c-5.7 10.1-83.5 109.8-178.6 109.8z"/><path class="st1" d="M178.6 0C82.2 0 3.6 103.8 0 108.7c3.6 4.9 82.2 108.7 178.6 108.7s175-103.8 178.6-108.7C353.6 103.8 275.1 0 178.6 0zm0 207.3c-54.5 0-98.6-44.2-98.6-98.6s44.2-98.6 98.6-98.6 98.6 44.2 98.6 98.6-44.1 98.6-98.6 98.6z"/></svg>