<svg xmlns="http://www.w3.org/2000/svg" viewBox="0 0 200 22"><path fill="#C6AA69" d="M0 0h200v22H0z"/><g fill="#FFF"><path d="M16.2 15.4h-1.7l-3.7-9.3h1.7l2.8 7 2.8-7h1.7l-3.6 9.3zM28.7 14.1c-.9.9-2.1 1.4-3.4 1.4-1.4 0-2.5-.5-3.4-1.4s-1.4-2.1-1.4-3.4.5-2.5 1.4-3.4 2.1-1.4 3.4-1.4c1.4 0 2.5.5 3.4 1.4s1.4 2.1 1.4 3.4-.5 2.5-1.4 3.4zm-1.1-5.8c-.6-.7-1.4-1-2.3-1-.9 0-1.7.3-2.3 1s-.9 1.5-.9 2.4c0 .9.3 1.7.9 2.4s1.4 1 2.3 1c.9 0 1.7-.3 2.3-1s.9-1.5.9-2.4c0-1-.3-1.8-.9-2.4zM32 6.1h1.5v9.3H32V6.1zM43.4 9.1c0 1.5-.7 2.5-2 2.9l2.4 3.4h-2l-2.2-3.1h-2v3.1h-1.5V6.1h3.4c1.4 0 2.4.2 3 .7.6.5.9 1.2.9 2.3zm-2 1.3c.3-.3.5-.7.5-1.3s-.2-1-.5-1.3c-.3-.2-.9-.3-1.7-.3h-2v3.3h1.9c.9 0 1.5-.1 1.8-.4zM49.2 15.4V6.1h1.5v7.8H55v1.5h-5.8zM57.9 13.3l-.9 2.1h-1.6l4-9.3H61l4 9.3h-1.6l-.9-2.1h-4.6zm4-1.5L60.2 8l-1.7 3.8h3.4zM73.9 15.4h-4V6.1h3.6c.6 0 1.2.1 1.6.2.4.2.8.4 1 .6.4.5.6 1 .6 1.6 0 .7-.2 1.3-.7 1.6-.2.1-.3.2-.3.2-.1 0-.2.1-.3.2.6.1 1 .4 1.4.8.3.4.5.9.5 1.5s-.2 1.2-.7 1.7c-.5.6-1.4.9-2.7.9zm-2.4-5.5h2c1.1 0 1.7-.4 1.7-1.2 0-.4-.1-.8-.4-1s-.8-.2-1.3-.2h-2v2.4zm0 4h2.4c.6 0 1-.1 1.3-.3s.5-.5.5-1c0-.8-.6-1.2-1.9-1.2h-2.2v2.5zM80.4 13.3l-.9 2.1h-1.6l4-9.3h1.6l4 9.3h-1.6l-.9-2.1h-4.6zm3.9-1.5L82.7 8 81 11.8h3.3zM95.6 6.1h1.5v9.3h-1.7l-5.2-6.8v6.8h-1.5V6.1h1.5l5.3 7v-7zM106.6 7.3c.9.8 1.3 1.9 1.3 3.4s-.4 2.6-1.3 3.4c-.9.8-2.2 1.3-3.9 1.3h-3V6.1h3.1c1.7 0 3 .4 3.8 1.2zm-.2 3.4c0-2.1-1.2-3.2-3.6-3.2h-1.5v6.4h1.7c1.1 0 2-.3 2.5-.8.6-.6.9-1.3.9-2.4zM116.4 6.1v1.5h-4.9V10h4.4v1.4h-4.4v2.5h5v1.5H110V6.1h6.4zM123.4 13.3l-.9 2.1h-1.6l4-9.3h1.6l4 9.3h-1.6l-.9-2.1h-4.6zm3.9-1.5L125.7 8l-1.7 3.8h3.3zM138.7 6.1h1.5v9.3h-1.7l-5.2-6.8v6.8h-1.5V6.1h1.5l5.3 7v-7zM149.6 6.1h1.5v9.3h-1.7l-5.2-6.8v6.8h-1.5V6.1h1.5l5.3 7v-7zM161.3 14.1c-.9.9-2.1 1.4-3.4 1.4-1.4 0-2.5-.5-3.4-1.4-.9-.9-1.4-2.1-1.4-3.4s.5-2.5 1.4-3.4c.9-.9 2.1-1.4 3.4-1.4 1.4 0 2.5.5 3.4 1.4.9.9 1.4 2.1 1.4 3.4s-.4 2.5-1.4 3.4zm-1.1-5.8c-.6-.7-1.4-1-2.3-1-.9 0-1.7.3-2.3 1-.6.7-.9 1.5-.9 2.4 0 .9.3 1.7.9 2.4.6.7 1.4 1 2.3 1 .9 0 1.7-.3 2.3-1 .6-.7.9-1.5.9-2.4 0-1-.3-1.8-.9-2.4zM171.5 6.1h1.5v9.3h-1.7l-5.2-6.8v6.8h-1.5V6.1h1.5l5.3 7v-7zM179.8 13.9c.5 0 1-.1 1.4-.3.4-.2.8-.5 1.2-.9l1 1c-1 1.1-2.1 1.6-3.5 1.6s-2.5-.5-3.4-1.4c-.9-.9-1.4-2.1-1.4-3.4 0-1.4.5-2.5 1.4-3.5.9-.9 2.1-1.4 3.5-1.4s2.6.5 3.6 1.6l-1 1.1c-.4-.4-.8-.7-1.2-.9-.4-.2-.8-.3-1.4-.3-.9 0-1.7.3-2.3.9s-.9 1.4-.9 2.3.3 1.7.9 2.4c.5.9 1.2 1.2 2.1 1.2zM191.7 6.1v1.5h-4.9V10h4.4v1.4h-4.4v2.5h5v1.5h-6.6V6.1h6.5z"/></g></svg>