<svg id="Calque_1" data-name="Calque 1" xmlns="http://www.w3.org/2000/svg" viewBox="0 0 368.95 58.72"><defs><style>.cls-1{fill:#fff}</style></defs><title>visions_in_motion</title><path class="cls-1" d="M7.18 50.74a.6.6 0 0 1-.59-.54L2.13.3H0l5.73 58h2.84l5.65-58h-2.05L7.78 50.2a.6.6 0 0 1-.6.54zM26.64.3h2.14v57.98h-2.14zM49 28c-.63-1.45-1.29-3-1.52-3.53-2.56-5.75-4-10-4-14.87 0-3.7.48-7.48 4-7.48 3.33 0 3.78 3.37 3.78 6.66v6.06h2.06V8.58C53.26 2.64 51.48 0 47.5 0s-6.21 3.42-6.21 9.39c0 5.32 1.32 9.41 4.09 16 .37.91.8 1.89 1.21 2.83.5 1.15 1 2.25 1.31 3.1 2.62 7 3.44 10.38 3.44 17.89 0 5.24-1.2 7.47-4 7.47-3.21 0-3.85-2.69-3.85-7v-5.3h-1.91v6.43c0 7 3.08 7.91 5.77 7.91s6.21-1 6.21-9.91A45.15 45.15 0 0 0 50 30.32zM66.51.3h2.14v57.98h-2.14zM94.9 8.72C94.83 2.58 93 .07 88.62.07c-4.13 0-6.14 2.85-6.14 8.72v41.36c.07 6.09 1.85 8.58 6.14 8.58s6.21-2.54 6.28-8.51c.07-4 .07-14.69.07-21.07V15.67c-.05-3.14-.07-5.79-.07-6.95zm-2.21 42.49c-.07 1.33-.3 5.37-3.92 5.37-3.28 0-3.86-2.72-4-5.37-.12-2.12-.1-11.54-.08-17.77v-7.73c0-6.24 0-15.67.08-17.69.12-2.45.28-5.81 4-5.81 3.41 0 3.94 2.77 4 5.76 0 1.62.07 8.74.07 21.17 0 5.34 0 19.54-.15 22.07zM117.54 43.94L111.33.3h-2.51v58h1.77V13.68a.6.6 0 0 1 1.19-.08l6.36 44.68h2.44V.3h-1.84v43.56a.6.6 0 0 1-1.2.08zM139.21 58.72c-2.68 0-5.77-.9-5.77-7.91v-6.43h1.92v5.32c0 4.34.64 7 3.85 7 2.8 0 4-2.24 4-7.47 0-7.51-.82-10.89-3.44-17.89-.33-.86-.81-2-1.31-3.1-.41-.94-.84-1.92-1.21-2.83-2.78-6.63-4.1-10.72-4.1-16 0-6 2.26-9.39 6.21-9.39s5.77 2.64 5.77 8.58v6.28h-2.06V8.8c0-3.29-.45-6.66-3.78-6.66-3.52 0-4 3.78-4 7.48 0 4.84 1.48 9.12 4 14.87.22.53.84 2 1.45 3.37l1.06 2.46a45.16 45.16 0 0 1 3.58 18.49c.04 8.89-3.5 9.91-6.17 9.91zM176.73 3.13h2.14v43.08h-2.14zM176.38 53.56h25.19v2.14h-25.19zM191.63 13.42L198 46.21h2.46V3.13h-1.84v33.13a.6.6 0 0 1-.54.59.6.6 0 0 1-.64-.48l-6.2-33.24h-2.53v43.08h1.77V13.53a.6.6 0 0 1 1.15-.11zM243.21 48.6a.6.6 0 0 1-.59-.53L237.28.3h-2.79v58h1.77l-.07-44.15a.6.6 0 0 1 1.19-.07l4.75 44.22H244l5.2-44.3a.57.57 0 0 1 .63-.53.6.6 0 0 1 .56.6l-.07 44.23h1.84V.3h-2.79l-5.57 47.77a.54.54 0 0 1-.59.53zM278.42 8.72c-.07-6.14-1.89-8.65-6.28-8.65C268 .07 266 2.93 266 8.8v41.35c.07 6.09 1.85 8.58 6.14 8.58s6.21-2.54 6.28-8.51c.07-4 .07-14.69.07-21.07V15.67c-.06-3.14-.07-5.79-.07-6.95zm-2.22 42.49c-.07 1.33-.3 5.37-3.92 5.37-3.28 0-3.86-2.72-4-5.37-.12-2.12-.1-11.54-.08-17.77v-7.73c0-6.24 0-15.67.08-17.69.12-2.45.28-5.81 4-5.81 3.41 0 3.94 2.77 4 5.76 0 1.62.07 8.74.07 21.17 0 5.34 0 19.54-.15 22.07zM295.36 2.88v55.4h2.06V2.88a.6.6 0 0 1 .6-.6h4.51v-2h-12.2v2h4.43a.6.6 0 0 1 .6.6zM314.89.3h2.14v57.98h-2.14zM343.29 8.72C343.22 2.58 341.4.07 337 .07c-4.13 0-6.14 2.85-6.14 8.72v41.36c.07 6.09 1.85 8.58 6.14 8.58s6.21-2.54 6.28-8.51c.07-4 .07-14.69.07-21.07V15.67c-.05-3.14-.06-5.79-.06-6.95zm-2.21 42.49c-.07 1.33-.3 5.37-3.92 5.37-3.28 0-3.86-2.72-4-5.37-.12-2.12-.1-11.53-.08-17.76V25.7c0-6.23 0-15.66.08-17.67.12-2.45.28-5.81 4-5.81 3.41 0 3.94 2.77 4 5.76 0 1.62.07 8.74.07 21.17-.01 5.33-.01 19.53-.16 22.06zM365.93 43.94L359.71.3h-2.51v58h1.8V13.68a.6.6 0 0 1 .55-.59.6.6 0 0 1 .63.51l6.36 44.68H369V.3h-1.84v43.56a.6.6 0 0 1-1.23.08z"/></svg>