<svg xmlns="http://www.w3.org/2000/svg" viewBox="0 0 369 58.7"><title>visions_in_motion</title><path d="M7.2 50.7c-.3 0-.6-.2-.6-.5L2.1.3H0l5.7 58h2.8l5.6-58h-2L7.8 50.2c-.1.3-.3.5-.6.5zM26.6.3h2.1v58h-2.1zM49 28c-.6-1.5-1.3-3-1.5-3.5-2.6-5.8-4-10-4-14.9 0-3.7.5-7.5 4-7.5 3.3 0 3.8 3.4 3.8 6.7v6.1h2.1V8.6c-.1-6-1.9-8.6-5.9-8.6s-6.2 3.4-6.2 9.4c0 5.3 1.3 9.4 4.1 16 .4.9.8 1.9 1.2 2.8.5 1.1 1 2.2 1.3 3.1 2.6 7 3.4 10.4 3.4 17.9 0 5.2-1.2 7.5-4 7.5-3.2 0-3.8-2.7-3.8-7v-5.3h-1.9v6.4c0 7 3.1 7.9 5.8 7.9s6.2-1 6.2-9.9c.1-6.3-1.1-12.6-3.6-18.5L49 28zM66.5.3h2.1v58h-2.1zM94.9 8.7C94.8 2.6 93 0 88.6 0c-4.1 0-6.1 2.8-6.1 8.7v41.4c.1 6.1 1.8 8.6 6.1 8.6s6.2-2.5 6.3-8.5c.1-4 .1-14.7.1-21.1V15.6c-.1-3.1-.1-5.7-.1-6.9zm-2.2 42.5c-.1 1.3-.3 5.4-3.9 5.4-3.3 0-3.9-2.7-4-5.4-.1-2.1-.1-11.5-.1-17.8v-7.7c0-6.2 0-15.7.1-17.7.1-2.4.3-5.8 4-5.8 3.4 0 3.9 2.8 4 5.8 0 1.6.1 8.7.1 21.2-.1 5.3-.1 19.5-.2 22zM117.5 43.9L111.3.3h-2.5v58h1.8V13.7c0-.3.3-.6.6-.6s.5.2.6.5l6.4 44.7h2.4V.3h-1.8v43.6c0 .3-.2.6-.6.6-.4 0-.6-.2-.7-.6zM139.2 58.7c-2.7 0-5.8-.9-5.8-7.9v-6.4h1.9v5.3c0 4.3.6 7 3.9 7 2.8 0 4-2.2 4-7.5 0-7.5-.8-10.9-3.4-17.9-.3-.9-.8-2-1.3-3.1-.4-.9-.8-1.9-1.2-2.8-2.8-6.6-4.1-10.7-4.1-16 0-6 2.3-9.4 6.2-9.4s5.8 2.6 5.8 8.6v6.3h-2.1V8.8c0-3.3-.4-6.7-3.8-6.7-3.5 0-4 3.8-4 7.5 0 4.8 1.5 9.1 4 14.9.2.5.8 2 1.4 3.4l1.1 2.5c2.5 5.8 3.7 12.1 3.6 18.5 0 8.8-3.5 9.8-6.2 9.8zM176.7 3.1h2.1v43.1h-2.1zM176.4 53.6h25.2v2.1h-25.2zM191.6 13.4l6.4 32.8h2.5V3.1h-1.8v33.1c0 .3-.2.6-.5.6s-.6-.2-.6-.5l-6.2-33.2h-2.5v43.1h1.8V13.5c.1-.3.4-.5.7-.5 0 .1.2.2.2.4zM243.2 48.6c-.3 0-.6-.2-.6-.5L237.3.3h-2.8v58h1.8l-.1-44.2c0-.3.3-.6.6-.6s.5.2.6.5l4.8 44.2h1.9l5.2-44.3c0-.3.3-.6.6-.5.3 0 .6.3.6.6l-.1 44.2h1.8V.2h-2.8L243.8 48c0 .4-.2.6-.6.6zM278.4 8.7c-.1-6.1-1.9-8.6-6.3-8.6C268 .1 266 3 266 8.8v41.4c.1 6.1 1.9 8.6 6.1 8.6s6.2-2.5 6.3-8.5c.1-4 .1-14.7.1-21.1V15.7c-.1-3.2-.1-5.8-.1-7zm-2.2 42.5c-.1 1.3-.3 5.4-3.9 5.4-3.3 0-3.9-2.7-4-5.4-.1-2.1-.1-11.5-.1-17.8v-7.7c0-6.2 0-15.7.1-17.7.1-2.4.3-5.8 4-5.8 3.4 0 3.9 2.8 4 5.8 0 1.6.1 8.7.1 21.2 0 5.3 0 19.5-.2 22zM295.4 2.9v55.4h2.1V2.9c0-.3.3-.6.6-.6h4.5v-2h-12.2v2h4.4c.3 0 .6.2.6.6zM314.9.3h2.1v58h-2.1zM343.3 8.7c-.1-6.1-1.9-8.7-6.3-8.7-4.1 0-6.1 2.8-6.1 8.7v41.4c.1 6.1 1.9 8.6 6.1 8.6s6.2-2.5 6.3-8.5c.1-4 .1-14.7.1-21.1V15.6c-.1-3.1-.1-5.7-.1-6.9zm-2.2 42.5c-.1 1.3-.3 5.4-3.9 5.4-3.3 0-3.9-2.7-4-5.4-.1-2.1-.1-11.5-.1-17.8v-7.8c0-6.2 0-15.7.1-17.7.1-2.4.3-5.8 4-5.8 3.4 0 3.9 2.8 4 5.8 0 1.6.1 8.7.1 21.2-.1 5.4-.1 19.6-.2 22.1zM365.9 43.9L359.7.3h-2.5v58h1.8V13.7c0-.3.2-.6.5-.6s.6.2.6.5l6.4 44.7h2.5V.3h-1.8v43.6c0 .3-.2.6-.6.7-.4-.1-.6-.3-.7-.7z"/></svg>